<?xml version="1.0" encoding="utf-8"?>
<!-- Generator: Adobe Illustrator 24.3.0, SVG Export Plug-In . SVG Version: 6.00 Build 0)  -->
<svg version="1.1" id="Layer_1" xmlns="http://www.w3.org/2000/svg" xmlns:xlink="http://www.w3.org/1999/xlink" x="0px" y="0px"
viewBox="25 -20 150 75" style="enable-background:new 0 0 177.5 90;" xml:space="preserve">
<style type="text/css">
.st0{fill-rule:evenodd;clip-rule:evenodd;fill:#F4E3C3;}
.st1{fill-rule:evenodd;clip-rule:evenodd;fill:#92734F;stroke:#755633;stroke-width:3.247517e-02;stroke-miterlimit:22.9256;}
.st2{fill-rule:evenodd;clip-rule:evenodd;fill:#755633;stroke:#755633;stroke-c.247517e-02;stroke-miterlimit:22.9256;}

.st3{fill-rule:evenodd;clip-rule:evenodd;fill:url(#SVGID_1_);stroke:#755633;stroke-width:3.247517e-02;stroke-miterlimit:22.9256;}
.st4{fill-rule:evenodd;clip-rule:evenodd;fill:#755633;stroke:#755633;stroke-width:3.236846e-02;stroke-miterlimit:22.9256;}

.st5{fill-rule:evenodd;clip-rule:evenodd;fill:url(#SVGID_2_);stroke:#755633;stroke-width:3.236846e-02;stroke-miterlimit:22.9256;}
.st6{fill-rule:evenodd;clip-rule:evenodd;fill:#000002;stroke:#000002;stroke-width:3.247517e-02;stroke-miterlimit:22.9256;}
.st7{fill-rule:evenodd;clip-rule:evenodd;fill:#C5C5C6;stroke:#4D4B57;stroke-width:3.247517e-02;stroke-miterlimit:22.9256;}
.st8{fill-rule:evenodd;clip-rule:evenodd;fill:#9B9B9B;stroke:#000002;stroke-width:3.247517e-02;stroke-miterlimit:22.9256;}
.st9{fill-rule:evenodd;clip-rule:evenodd;fill:#6E6E6E;stroke:#000002;stroke-width:3.247517e-02;stroke-miterlimit:22.9256;}
</style>
<g>
<path class="st0" d="M57.4,33.9c0,0.3,0,0.6-0.1,0.9c-0.1,0.3-0.2,0.5-0.3,0.7c-0.1,0.2-0.3,0.4-0.5,0.5c-0.2,0.1-0.4,0.3-0.6,0.3
c-0.2,0.1-0.4,0.2-0.6,0.2c-0.2,0-0.4,0.1-0.6,0.1l3,2.6h-2.2l-3-2.6h-0.4h-0.6h-0.6v2.6h-1.5v-2.6h-2.8v-1.5h2.8v-3.2
c0-0.1,0-0.2,0.1-0.3c0-0.1,0.1-0.2,0.2-0.2c0.1-0.1,0.1-0.1,0.2-0.2c0.1,0,0.2-0.1,0.3-0.1h5.5c0.3,0,0.6,0.1,0.8,0.2
c0.2,0.1,0.4,0.3,0.5,0.4c0.1,0.2,0.2,0.4,0.3,0.6c0.1,0.2,0.1,0.4,0.1,0.6V33.9L57.4,33.9z M51.4,35.1h0.6h2.6
c0.2,0,0.4-0.1,0.5-0.1c0.2-0.1,0.3-0.1,0.4-0.2c0.1-0.1,0.2-0.2,0.3-0.4c0.1-0.1,0.1-0.3,0.1-0.5V33c0-0.1,0-0.1,0-0.2
c0,0,0-0.1-0.1-0.1c0,0-0.1,0-0.1,0c0,0-0.1,0-0.1,0h-4.8v2.5H51.4L51.4,35.1z M67.3,36c0,0.5-0.1,0.9-0.3,1.3
c-0.2,0.4-0.4,0.8-0.7,1.1c-0.3,0.3-0.7,0.5-1.1,0.7c-0.4,0.2-0.9,0.3-1.3,0.3h-2c-0.5,0-0.9-0.1-1.3-0.3c-0.4-0.2-0.8-0.4-1.1-0.7
c-0.3-0.3-0.5-0.7-0.7-1.1c-0.2-0.4-0.3-0.9-0.3-1.3v-1.5c0-0.5,0.1-0.9,0.3-1.3c0.2-0.4,0.4-0.8,0.7-1.1c0.3-0.3,0.7-0.5,1.1-0.7
c0.4-0.2,0.9-0.3,1.3-0.3h2c0.5,0,0.9,0.1,1.3,0.3c0.4,0.2,0.8,0.4,1.1,0.7c0.3,0.3,0.5,0.7,0.7,1.1c0.2,0.4,0.3,0.9,0.3,1.3V36
L67.3,36z M65.8,34.4c0-0.3,0-0.5-0.1-0.8c-0.1-0.2-0.2-0.4-0.4-0.6c-0.2-0.2-0.4-0.3-0.6-0.4c-0.2-0.1-0.5-0.1-0.8-0.1h-2
c-0.3,0-0.5,0-0.8,0.1c-0.2,0.1-0.4,0.2-0.6,0.4c-0.2,0.2-0.3,0.4-0.4,0.6c-0.1,0.2-0.1,0.5-0.1,0.8V36c0,0.3,0,0.5,0.1,0.8
c0.1,0.2,0.2,0.4,0.4,0.6c0.2,0.2,0.4,0.3,0.6,0.4c0.2,0.1,0.5,0.1,0.8,0.1h2c0.3,0,0.5,0,0.8-0.1c0.2-0.1,0.4-0.2,0.6-0.4
c0.2-0.2,0.3-0.4,0.4-0.6c0.1-0.2,0.1-0.5,0.1-0.8V34.4L65.8,34.4z M75.3,35.9h-4.6v-1.5h4.6V35.9L75.3,35.9z M76,32.6v-1.5h-6.5
c-0.1,0-0.2,0-0.3,0.1c-0.1,0-0.2,0.1-0.2,0.2c-0.1,0.1-0.1,0.1-0.2,0.2c0,0.1-0.1,0.2-0.1,0.3v12.5h1.5V32.6H76L76,32.6z
M78.6,39.2h-1.5v-8h1.5V39.2L78.6,39.2z M87.5,39.2h-5.2c-0.1,0-0.3,0-0.4,0c-0.2,0-0.3-0.1-0.5-0.1c-0.2-0.1-0.3-0.2-0.4-0.3
c-0.1-0.1-0.3-0.2-0.4-0.4c-0.1-0.2-0.2-0.3-0.3-0.5c-0.1-0.2-0.1-0.4-0.1-0.7v-3.9c0-0.1,0-0.3,0-0.4c0-0.2,0.1-0.3,0.1-0.5
c0.1-0.2,0.2-0.3,0.3-0.4c0.1-0.1,0.2-0.3,0.4-0.4c0.2-0.1,0.3-0.2,0.5-0.3c0.2-0.1,0.4-0.1,0.7-0.1h5.2v1.5h-5.2
c-0.2,0-0.3,0.1-0.4,0.2c-0.1,0.1-0.2,0.2-0.2,0.4v3.9c0,0.2,0.1,0.3,0.2,0.4c0.1,0.1,0.2,0.2,0.4,0.2h5.2V39.2L87.5,39.2z
M90.3,39.2h-1.5v-8h1.5V39.2L90.3,39.2z M98.6,35.9H94v-1.5h4.6V35.9L98.6,35.9z M99.3,39.2v-1.5h-5.2c-0.2,0-0.3,0-0.4-0.2
c-0.1-0.1-0.2-0.2-0.2-0.4v-4.5h5.8v-1.5h-6.5c-0.1,0-0.2,0-0.3,0.1c-0.1,0-0.2,0.1-0.2,0.2c-0.1,0.1-0.1,0.1-0.2,0.2
c0,0.1-0.1,0.2-0.1,0.3v5.2c0,0.4,0.1,0.7,0.2,1c0.1,0.3,0.3,0.5,0.5,0.6c0.2,0.2,0.4,0.3,0.7,0.3c0.2,0.1,0.5,0.1,0.7,0.1H99.3
L99.3,39.2z M108.7,38.6c0,0.1,0,0.2-0.1,0.3c0,0.1-0.1,0.2-0.2,0.2c-0.1,0.1-0.1,0.1-0.2,0.2c-0.1,0-0.2,0.1-0.3,0.1
c-0.1,0-0.2,0-0.3-0.1c-0.1,0-0.2-0.1-0.2-0.2l-5.3-5.5v5.6h-1.5v-7.4c0-0.1,0-0.3,0.1-0.4c0.1-0.1,0.2-0.2,0.3-0.3
c0.1-0.1,0.3-0.1,0.4,0c0.1,0,0.3,0.1,0.4,0.2l5.3,5.5v-5.6h1.5V38.6L108.7,38.6z M117.6,32.6h-3.2v6.6H113v-6.6h-3.2v-1.5h7.9
V32.6z"/>
<path class="st0" d="M66.8,43.6c0,0.1,0,0.2,0,0.3c0,0.1-0.1,0.2-0.1,0.3c-0.1,0.1-0.1,0.1-0.2,0.2c-0.1,0.1-0.2,0.1-0.4,0.1h-2.5
c0,0-0.1,0-0.1,0c0,0-0.1,0-0.1-0.1c0,0-0.1-0.1-0.1-0.1c0,0,0-0.1,0-0.1v-3c0,0,0-0.1,0-0.1c0,0,0-0.1,0.1-0.1
c0,0,0.1-0.1,0.1-0.1c0,0,0.1,0,0.1,0h2.2c0.1,0,0.2,0,0.3,0c0.1,0,0.2,0.1,0.3,0.1c0.1,0.1,0.1,0.1,0.2,0.2
c0.1,0.1,0.1,0.2,0.1,0.4v0.1c0,0.1,0,0.2-0.1,0.4c0,0.1-0.1,0.3-0.2,0.4c0.1,0,0.1,0.1,0.2,0.2c0.1,0.1,0.1,0.1,0.2,0.2
c0,0.1,0.1,0.2,0.1,0.3c0,0.1,0,0.2,0,0.4V43.6L66.8,43.6z M66.2,43.5c0-0.1,0-0.2,0-0.2c0-0.1-0.1-0.1-0.1-0.2
c0,0-0.1-0.1-0.2-0.1c-0.1,0-0.1,0-0.2,0h-1.5v-0.7h1.2c0.1,0,0.2,0,0.2,0c0.1,0,0.1-0.1,0.2-0.1c0,0,0.1-0.1,0.1-0.2
c0-0.1,0-0.1,0-0.2v-0.1c0-0.1,0-0.1-0.1-0.1h-1.9v2.3H66c0,0,0,0,0,0c0,0,0,0,0,0c0,0,0,0,0,0c0,0,0,0,0-0.1V43.5L66.2,43.5z
M75.6,44.4h-0.7v-2.2l-1.2,2.1c0,0.1-0.1,0.1-0.1,0.1c-0.1,0-0.1,0-0.2,0c-0.1,0-0.1,0-0.2,0c-0.1,0-0.1-0.1-0.1-0.1L72,42.2v2.2
h-0.7V41c0-0.1,0-0.1,0.1-0.2c0-0.1,0.1-0.1,0.2-0.1c0,0,0.1,0,0.1,0c0,0,0.1,0,0.1,0c0,0,0.1,0,0.1,0.1c0,0,0.1,0.1,0.1,0.1
l1.5,2.6l1.5-2.6c0-0.1,0.1-0.1,0.2-0.1c0.1,0,0.1,0,0.2,0c0.1,0,0.1,0.1,0.2,0.1c0,0.1,0.1,0.1,0.1,0.2V44.4L75.6,44.4z
M82.1,43.3c0,0.1,0,0.2,0,0.4c0,0.1-0.1,0.2-0.1,0.3c-0.1,0.1-0.1,0.1-0.2,0.2c-0.1,0.1-0.1,0.1-0.2,0.1c-0.1,0-0.2,0.1-0.2,0.1
c-0.1,0-0.2,0-0.2,0h-2.6v-0.7h2.6c0.1,0,0.2,0,0.3-0.1c0.1-0.1,0.1-0.2,0.1-0.3c0-0.1,0-0.1,0-0.2c0-0.1,0-0.1-0.1-0.1
c0,0-0.1-0.1-0.1-0.1c-0.1,0-0.1,0-0.2,0h-1.5c-0.1,0-0.2,0-0.3-0.1c-0.1,0-0.2-0.1-0.3-0.2c-0.1-0.1-0.2-0.2-0.3-0.3
c-0.1-0.1-0.1-0.3-0.1-0.5c0-0.2,0-0.4,0.1-0.5c0.1-0.1,0.2-0.2,0.3-0.3c0.1-0.1,0.2-0.1,0.3-0.2c0.1,0,0.2-0.1,0.3-0.1h2.3v0.7
h-2.3c-0.1,0-0.2,0-0.3,0.1c-0.1,0.1-0.1,0.2-0.1,0.3c0,0.1,0,0.2,0.1,0.3c0.1,0.1,0.2,0.1,0.3,0.1h1.5h0c0.1,0,0.1,0,0.2,0
c0.1,0,0.2,0,0.2,0.1c0.1,0,0.2,0.1,0.2,0.1c0.1,0.1,0.1,0.1,0.2,0.2c0.1,0.1,0.1,0.2,0.1,0.3C82.1,43.1,82.1,43.2,82.1,43.3
L82.1,43.3z M86.7,42.9c0,0.2,0,0.4-0.1,0.6s-0.2,0.3-0.3,0.5c-0.1,0.1-0.3,0.2-0.5,0.3c-0.2,0.1-0.4,0.1-0.6,0.1h-0.9
c-0.2,0-0.4,0-0.6-0.1c-0.2-0.1-0.3-0.2-0.5-0.3c-0.1-0.1-0.2-0.3-0.3-0.5c-0.1-0.2-0.1-0.4-0.1-0.6v-0.7c0-0.2,0-0.4,0.1-0.6
c0.1-0.2,0.2-0.3,0.3-0.5c0.1-0.1,0.3-0.2,0.5-0.3c0.2-0.1,0.4-0.1,0.6-0.1h0.9c0.2,0,0.4,0,0.6,0.1c0.2,0.1,0.3,0.2,0.5,0.3
c0.1,0.1,0.2,0.3,0.3,0.5c0.1,0.2,0.1,0.4,0.1,0.6V42.9L86.7,42.9z M86.1,42.2c0-0.1,0-0.2-0.1-0.4c0-0.1-0.1-0.2-0.2-0.3
c-0.1-0.1-0.2-0.1-0.3-0.2c-0.1,0-0.2-0.1-0.3-0.1h-0.9c-0.1,0-0.2,0-0.4,0.1c-0.1,0-0.2,0.1-0.3,0.2c-0.1,0.1-0.1,0.2-0.2,0.3
c0,0.1-0.1,0.2-0.1,0.4v0.7c0,0.1,0,0.2,0.1,0.4c0,0.1,0.1,0.2,0.2,0.3c0.1,0.1,0.2,0.1,0.3,0.2c0.1,0,0.2,0.1,0.4,0.1h0.9
c0.1,0,0.2,0,0.4-0.1c0.1,0,0.2-0.1,0.3-0.2c0.1-0.1,0.1-0.2,0.2-0.3c0-0.1,0.1-0.2,0.1-0.4V42.2L86.1,42.2z M90.9,44.4h-3
c0,0-0.1,0-0.1,0c0,0-0.1,0-0.1-0.1c0,0-0.1-0.1-0.1-0.1c0,0,0-0.1,0-0.1v-3.3h0.7v3h2.7V44.4L90.9,44.4z M95,44.1c0,0,0,0.1,0,0.1
c0,0,0,0.1-0.1,0.1c0,0-0.1,0.1-0.1,0.1c0,0-0.1,0-0.1,0h-1.5c-0.1,0-0.3,0-0.4,0c-0.1,0-0.3-0.1-0.4-0.1c-0.1-0.1-0.3-0.1-0.4-0.2
c-0.1-0.1-0.2-0.2-0.3-0.3c-0.1-0.1-0.2-0.3-0.2-0.5c-0.1-0.2-0.1-0.4-0.1-0.6v-1.8H92v1.8c0,0.2,0,0.3,0.1,0.5
c0.1,0.1,0.1,0.2,0.2,0.3c0.1,0.1,0.2,0.2,0.3,0.2c0.1,0,0.2,0.1,0.3,0.1c0.1,0,0.2,0,0.2,0c0.1,0,0.1,0,0.1,0h1.2v-3H95V44.1
L95,44.1z M99.3,41.4h-1.5v3h-0.7v-3h-1.5v-0.7h3.6V41.4L99.3,41.4z M100.7,44.4H100v-3.6h0.7V44.4L100.7,44.4z M105.5,42.9
c0,0.2,0,0.4-0.1,0.6c-0.1,0.2-0.2,0.3-0.3,0.5c-0.1,0.1-0.3,0.2-0.5,0.3c-0.2,0.1-0.4,0.1-0.6,0.1h-0.9c-0.2,0-0.4,0-0.6-0.1
c-0.2-0.1-0.3-0.2-0.5-0.3c-0.1-0.1-0.2-0.3-0.3-0.5c-0.1-0.2-0.1-0.4-0.1-0.6v-0.7c0-0.2,0-0.4,0.1-0.6c0.1-0.2,0.2-0.3,0.3-0.5
c0.1-0.1,0.3-0.2,0.5-0.3c0.2-0.1,0.4-0.1,0.6-0.1h0.9c0.2,0,0.4,0,0.6,0.1c0.2,0.1,0.3,0.2,0.5,0.3c0.1,0.1,0.2,0.3,0.3,0.5
c0.1,0.2,0.1,0.4,0.1,0.6V42.9L105.5,42.9z M104.8,42.2c0-0.1,0-0.2-0.1-0.4c0-0.1-0.1-0.2-0.2-0.3c-0.1-0.1-0.2-0.1-0.3-0.2
c-0.1,0-0.2-0.1-0.3-0.1h-0.9c-0.1,0-0.2,0-0.4,0.1c-0.1,0-0.2,0.1-0.3,0.2c-0.1,0.1-0.1,0.2-0.2,0.3c0,0.1-0.1,0.2-0.1,0.4v0.7
c0,0.1,0,0.2,0.1,0.4c0,0.1,0.1,0.2,0.2,0.3c0.1,0.1,0.2,0.1,0.3,0.2c0.1,0,0.2,0.1,0.4,0.1h0.9c0.1,0,0.2,0,0.4-0.1
c0.1,0,0.2-0.1,0.3-0.2c0.1-0.1,0.1-0.2,0.2-0.3c0-0.1,0.1-0.2,0.1-0.4V42.2L104.8,42.2z M110,44.1c0,0,0,0.1,0,0.1
c0,0,0,0.1-0.1,0.1c0,0-0.1,0.1-0.1,0.1c0,0-0.1,0-0.1,0c0,0-0.1,0-0.1,0c0,0-0.1,0-0.1-0.1l-2.4-2.5v2.6h-0.7V41
c0-0.1,0-0.1,0.1-0.2c0-0.1,0.1-0.1,0.1-0.1c0.1,0,0.1,0,0.2,0c0.1,0,0.1,0,0.2,0.1l2.4,2.5v-2.6h0.7V44.1L110,44.1z M114.5,43.3
c0,0.1,0,0.2,0,0.4c0,0.1-0.1,0.2-0.1,0.3c-0.1,0.1-0.1,0.1-0.2,0.2c-0.1,0.1-0.1,0.1-0.2,0.1c-0.1,0-0.2,0.1-0.2,0.1
c-0.1,0-0.2,0-0.2,0h-2.6v-0.7h2.6c0.1,0,0.2,0,0.3-0.1c0.1-0.1,0.1-0.2,0.1-0.3c0-0.1,0-0.1,0-0.2c0-0.1,0-0.1-0.1-0.1
c0,0-0.1-0.1-0.1-0.1c-0.1,0-0.1,0-0.2,0h-1.5c-0.1,0-0.2,0-0.3-0.1c-0.1,0-0.2-0.1-0.3-0.2c-0.1-0.1-0.2-0.2-0.3-0.3
c-0.1-0.1-0.1-0.3-0.1-0.5c0-0.2,0-0.4,0.1-0.5c0.1-0.1,0.2-0.2,0.3-0.3c0.1-0.1,0.2-0.1,0.3-0.2c0.1,0,0.2-0.1,0.3-0.1h2.3v0.7
h-2.3c-0.1,0-0.2,0-0.3,0.1c-0.1,0.1-0.1,0.2-0.1,0.3c0,0.1,0,0.2,0.1,0.3c0.1,0.1,0.2,0.1,0.3,0.1h1.5h0c0.1,0,0.1,0,0.2,0
c0.1,0,0.2,0,0.2,0.1c0.1,0,0.2,0.1,0.2,0.1c0.1,0.1,0.1,0.1,0.2,0.2c0.1,0.1,0.1,0.2,0.1,0.3C114.5,43.1,114.5,43.2,114.5,43.3z"
/>
<path class="st1" d="M33.1,18.1l9.2-7.1L40.5,10l-9.2,7.1c-0.1,0.1-0.2,0.2-0.2,0.3L33.1,18.1z"/>
<path class="st2" d="M32.6,19.2c0-0.4,0.1-0.8,0.5-1l-2-0.7c-0.1,0.2-0.1,0.4-0.1,0.6v22l1.7,1V19.2z"/>
<linearGradient id="SVGID_1_" gradientUnits="userSpaceOnUse" x1="56.9605" y1="22.0329" x2="18.3657" y2="31.6556">
<stop  offset="0" style="stop-color:#F4E3C3"/>
<stop  offset="1" style="stop-color:#755633"/>
</linearGradient>
<path class="st3" d="M33.1,18.1c-0.3,0.2-0.4,0.6-0.5,1c0,7.2,0,14.5,0,21.7c0.2,0.1,0.4,0.1,0.6,0.2c4.5-0.6,8.9-1.2,13.4-1.9
c0.3-0.1,0.5-0.2,0.6-0.5c0-2.3,0-4.6,0-6.9c-1.7,0.3-3.3,0.6-5,0.8c0,0.6,0,1.3,0,1.9c-1.6,0.3-3.2,0.5-4.7,0.8c0-0.5,0-1,0-1.5
c0-4.2,0-8.3,0-12.5c0-0.6,0-0.7,0.5-1c0.8-0.6,1.6-1.1,2.4-1.7c0.6-0.4,1.3-0.9,1.9-1.3c0-0.2,0-0.3,0-0.5c0-1.9,0-3.8,0-5.8
C39.2,13.4,36.1,15.8,33.1,18.1z"/>
<polygon class="st4" points="40.4,18.7 40.4,23.2 41.4,23.8 42.3,24.3 42.3,23.2 42.3,17.3 	"/>
<linearGradient id="SVGID_2_" gradientUnits="userSpaceOnUse" x1="46.2639" y1="19.565" x2="42.1417" y2="20.5928">
<stop  offset="0" style="stop-color:#F4E3C3"/>
<stop  offset="1" style="stop-color:#755633"/>
</linearGradient>
<path class="st5" d="M42.3,17.3v5.9v1.1c1.4-1.2,2.8-2.2,4.8-2.3v-0.7v-1.5c0-0.4-0.2-0.6-0.4-0.8l-4.4-2.2V17.3z"/>
<path class="st6" d="M42.3,24.3l-0.9-0.5c-0.6,0.5-1.1,1.1-1.7,1.7c-0.9,1.2-1.3,2.4-1.5,3.6c-0.1,0.5-0.1,1.1,0,1.6l1.7,0.9
c-0.1-0.1-0.1-0.2-0.1-0.4c0.5-2.3,1.3-4.5,3.3-6.5c1.4-0.9,2.9-1.7,4.8-2.1c2.6-0.9,4.4-2.6,5-5.5c0.5-3.5-0.8-5.8-3.9-6.9
c1.5,1,2.6,2.5,2.2,5.6c-0.4,2.3-1.5,4.1-3.6,5.2c-0.1,0-0.3,0.1-0.4,0.1V22C45.1,22.1,43.6,23.1,42.3,24.3z"/>
<path class="st7" d="M43,24.8c-2,1.9-2.8,4.2-3.3,6.5c0,0.2,0,0.3,0.1,0.4c0.1,0.1,0.3,0.2,0.6,0.2c0.1,0,0.1,0,0.2,0
c1.9-0.2,3.6-0.4,5.2-0.7c0.8-0.2,1.6-0.3,2.3-0.6C59.3,27,60.3,18.2,60.3,14.3c-0.3-5.2-2.6-8.9-7.1-11c-0.1,0-0.1-0.1-0.2-0.1
c-1.2-0.5-2.5-0.8-3.9-0.7l-6.8,0.9v7.7c2.2-0.3,5.9-1.3,7.9-0.1c2.2,1.3,3.1,3.4,2.6,6.3c-0.6,2.9-2.4,4.6-5,5.5
C46,23.1,44.4,23.9,43,24.8z"/>
<polygon class="st1" points="40.5,33.4 37.5,33.8 37.5,35.3 42.2,34.5 	"/>
<path class="st2" d="M40.5,31.9l0,1.5l1.7,1.2v-1.9l5-0.8l-1.4-0.7c-1.5,0.3-3.3,0.5-5.2,0.7C40.6,31.9,40.5,31.9,40.5,31.9z"/>
<path class="st8" d="M40.5,10l1.8,1.1V3.4l-1.6-1c-0.1,0.1-0.1,0.2-0.1,0.3V10z"/>
<path class="st9" d="M53.2,3.3L53.2,3.3C53.2,3.3,53.2,3.3,53.2,3.3L53.2,3.3z M42.3,3.4l-1.6-1c1.7-0.5,3.8-0.7,6-0.8
c3-0.2,5,0.5,6.5,1.7c-0.1,0-0.1-0.1-0.2-0.1c-1.2-0.5-2.5-0.8-3.9-0.7L42.3,3.4z"/>
</g>
</svg>
