<?xml version="1.0" encoding="utf-8"?>
<!-- Generator: Adobe Illustrator 24.3.0, SVG Export Plug-In . SVG Version: 6.00 Build 0)  -->
<svg version="1.1" id="Layer_1" xmlns="http://www.w3.org/2000/svg" xmlns:xlink="http://www.w3.org/1999/xlink" x="0px" y="0px"
	 viewBox="0 0 177.5 90" style="enable-background:new 0 0 177.5 90;" xml:space="preserve">
<style type="text/css">
	.st0{fill-rule:evenodd;clip-rule:evenodd;fill:#000002;}
	.st1{fill-rule:evenodd;clip-rule:evenodd;fill:#755633;}
	.st2{fill-rule:evenodd;clip-rule:evenodd;fill:#92734F;stroke:#755633;stroke-width:5.990285e-02;stroke-miterlimit:22.9256;}
	.st3{fill-rule:evenodd;clip-rule:evenodd;fill:#755633;stroke:#755633;stroke-width:5.990285e-02;stroke-miterlimit:22.9256;}
	
		.st4{fill-rule:evenodd;clip-rule:evenodd;fill:url(#SVGID_1_);stroke:#755633;stroke-width:5.990285e-02;stroke-miterlimit:22.9256;}
	.st5{fill-rule:evenodd;clip-rule:evenodd;fill:#755633;stroke:#755633;stroke-width:5.970602e-02;stroke-miterlimit:22.9256;}
	
		.st6{fill-rule:evenodd;clip-rule:evenodd;fill:url(#SVGID_2_);stroke:#755633;stroke-width:5.970602e-02;stroke-miterlimit:22.9256;}
	.st7{fill-rule:evenodd;clip-rule:evenodd;fill:#000002;stroke:#000002;stroke-width:5.990285e-02;stroke-miterlimit:22.9256;}
	.st8{fill-rule:evenodd;clip-rule:evenodd;fill:#4D4B57;stroke:#4D4B57;stroke-width:5.990285e-02;stroke-miterlimit:22.9256;}
	.st9{fill-rule:evenodd;clip-rule:evenodd;fill:#0C0B17;stroke:#000002;stroke-width:5.990285e-02;stroke-miterlimit:22.9256;}
</style>
<g>
	<path class="st0" d="M57.6,65.1c0,0.6-0.1,1.2-0.2,1.6c-0.2,0.5-0.4,0.9-0.6,1.3c-0.3,0.4-0.6,0.7-0.9,0.9
		c-0.3,0.3-0.7,0.5-1.1,0.6c-0.4,0.2-0.7,0.3-1.1,0.4c-0.4,0.1-0.7,0.1-1.1,0.1l5.6,4.8h-4.1l-5.6-4.8h-0.8h-1.2h-1.1v4.8h-2.7v-4.8
		h-5.3v-2.7h5.3v-5.9c0-0.2,0-0.4,0.1-0.5c0.1-0.2,0.2-0.3,0.3-0.4c0.1-0.1,0.3-0.2,0.4-0.3c0.2-0.1,0.3-0.1,0.5-0.1h10.2
		c0.6,0,1.1,0.1,1.5,0.3c0.4,0.2,0.7,0.5,1,0.8c0.3,0.3,0.4,0.7,0.6,1.1c0.1,0.4,0.2,0.7,0.2,1.1V65.1L57.6,65.1z M46.6,67.4h1.2
		h4.9c0.3,0,0.6-0.1,0.9-0.2c0.3-0.1,0.5-0.3,0.7-0.5c0.2-0.2,0.4-0.4,0.5-0.7c0.1-0.3,0.2-0.6,0.2-0.9v-1.7c0-0.2,0-0.3-0.1-0.3
		c0-0.1-0.1-0.1-0.1-0.2c-0.1,0-0.1-0.1-0.2-0.1c-0.1,0-0.1,0-0.2,0h-8.9v4.6H46.6L46.6,67.4z M75.8,68.9c0,0.9-0.2,1.7-0.5,2.5
		c-0.3,0.8-0.7,1.4-1.3,2c-0.6,0.6-1.2,1-2,1.3c-0.7,0.3-1.6,0.5-2.5,0.5H66c-0.9,0-1.7-0.2-2.5-0.5c-0.8-0.3-1.4-0.7-2-1.3
		c-0.6-0.5-1-1.2-1.3-2c-0.3-0.8-0.5-1.6-0.5-2.5v-2.8c0-0.9,0.2-1.7,0.5-2.5c0.3-0.8,0.7-1.4,1.3-2c0.5-0.5,1.2-1,2-1.3
		c0.8-0.3,1.6-0.5,2.5-0.5h3.6c0.9,0,1.7,0.2,2.5,0.5c0.8,0.3,1.4,0.7,2,1.3c0.5,0.5,1,1.2,1.3,2c0.3,0.8,0.5,1.6,0.5,2.5V68.9
		L75.8,68.9z M73.1,66.1c0-0.5-0.1-1-0.3-1.4c-0.2-0.4-0.4-0.8-0.7-1.1c-0.3-0.3-0.7-0.5-1.1-0.7c-0.4-0.2-0.9-0.3-1.4-0.3H66
		c-0.5,0-1,0.1-1.4,0.3c-0.4,0.2-0.8,0.4-1.1,0.7c-0.3,0.3-0.5,0.7-0.7,1.1c-0.2,0.4-0.3,0.9-0.3,1.4v2.8c0,0.5,0.1,1,0.3,1.4
		c0.2,0.4,0.4,0.8,0.7,1.1c0.3,0.3,0.7,0.5,1.1,0.7c0.4,0.2,0.9,0.3,1.4,0.3h3.6c0.5,0,1-0.1,1.4-0.3c0.4-0.2,0.8-0.4,1.1-0.7
		c0.3-0.3,0.5-0.7,0.7-1.1c0.2-0.4,0.3-0.9,0.3-1.4V66.1L73.1,66.1z M90.7,68.8h-8.5v-2.7h8.5V68.8L90.7,68.8z M91.9,62.8v-2.7H79.8
		c-0.2,0-0.4,0-0.5,0.1c-0.2,0.1-0.3,0.2-0.4,0.3c-0.1,0.1-0.2,0.3-0.3,0.4c-0.1,0.2-0.1,0.3-0.1,0.5v23.1h2.7V62.8H91.9L91.9,62.8z
		 M96.8,74.9h-2.7V60.1h2.7V74.9L96.8,74.9z M113.2,74.9h-9.7c-0.2,0-0.5,0-0.8-0.1c-0.3-0.1-0.6-0.1-0.8-0.3
		c-0.3-0.1-0.5-0.3-0.8-0.5c-0.3-0.2-0.5-0.4-0.7-0.7c-0.2-0.3-0.4-0.6-0.5-1c-0.1-0.4-0.2-0.8-0.2-1.2v-7.3c0-0.2,0-0.5,0.1-0.8
		c0.1-0.3,0.1-0.6,0.3-0.8c0.1-0.3,0.3-0.5,0.5-0.8c0.2-0.3,0.4-0.5,0.7-0.7c0.3-0.2,0.6-0.4,1-0.5c0.4-0.1,0.8-0.2,1.2-0.2h9.7v2.7
		h-9.7c-0.4,0-0.6,0.1-0.8,0.3c-0.2,0.2-0.3,0.5-0.3,0.8v7.2c0,0.3,0.1,0.6,0.3,0.8c0.2,0.2,0.5,0.3,0.8,0.3h9.7V74.9L113.2,74.9z
		 M118.4,74.9h-2.7V60.1h2.7V74.9L118.4,74.9z M133.7,68.8h-8.5v-2.7h8.5V68.8L133.7,68.8z M134.9,74.9v-2.7h-9.7
		c-0.4,0-0.6-0.1-0.8-0.3c-0.2-0.2-0.3-0.5-0.3-0.8v-8.3h10.7v-2.7h-12.1c-0.2,0-0.4,0-0.5,0.1c-0.2,0.1-0.3,0.2-0.4,0.3
		c-0.1,0.1-0.2,0.3-0.3,0.4c-0.1,0.2-0.1,0.3-0.1,0.5v9.7c0,0.7,0.1,1.3,0.4,1.8c0.2,0.5,0.6,0.9,0.9,1.2c0.4,0.3,0.8,0.5,1.2,0.6
		c0.4,0.1,0.8,0.2,1.2,0.2H134.9L134.9,74.9z M152.3,73.7c0,0.2,0,0.4-0.1,0.5c-0.1,0.2-0.2,0.3-0.3,0.4c-0.1,0.1-0.3,0.2-0.4,0.3
		c-0.2,0.1-0.3,0.1-0.5,0.1c-0.2,0-0.3,0-0.5-0.1c-0.2-0.1-0.3-0.2-0.5-0.3l-9.8-10.2v10.4h-2.7V61.2c0-0.3,0.1-0.5,0.2-0.7
		c0.2-0.2,0.4-0.4,0.6-0.5c0.3-0.1,0.5-0.1,0.8-0.1c0.3,0,0.5,0.2,0.7,0.4l9.8,10.2V60.1h2.7V73.7L152.3,73.7z M168.7,62.8h-5.9
		v12.1h-2.7V62.8h-5.9v-2.7h14.5V62.8z"/>
	<path class="st1" d="M75,83c0,0.2,0,0.3-0.1,0.5c-0.1,0.2-0.1,0.3-0.3,0.5c-0.1,0.1-0.3,0.3-0.5,0.4c-0.2,0.1-0.4,0.1-0.7,0.1h-4.6
		c-0.1,0-0.2,0-0.2,0c-0.1,0-0.1-0.1-0.2-0.1c-0.1-0.1-0.1-0.1-0.1-0.2c0-0.1,0-0.2,0-0.2v-5.5c0-0.1,0-0.2,0-0.2
		c0-0.1,0.1-0.1,0.1-0.2c0.1-0.1,0.1-0.1,0.2-0.1c0.1,0,0.2,0,0.2,0H73c0.2,0,0.3,0,0.5,0.1c0.2,0.1,0.3,0.1,0.5,0.3
		c0.1,0.1,0.3,0.3,0.4,0.5c0.1,0.2,0.1,0.4,0.1,0.7v0.2c0,0.2,0,0.4-0.1,0.7c-0.1,0.2-0.2,0.5-0.3,0.7c0.1,0.1,0.3,0.2,0.4,0.3
		c0.1,0.1,0.2,0.3,0.3,0.4c0.1,0.2,0.2,0.3,0.2,0.5c0.1,0.2,0.1,0.4,0.1,0.7V83L75,83z M73.8,82.8c0-0.2,0-0.3-0.1-0.4
		c0-0.1-0.1-0.2-0.2-0.3c-0.1-0.1-0.2-0.2-0.3-0.2c-0.1,0-0.3-0.1-0.4-0.1H70v-1.2h2.2c0.2,0,0.3,0,0.4-0.1c0.1,0,0.2-0.1,0.3-0.2
		c0.1-0.1,0.2-0.2,0.2-0.3c0-0.1,0.1-0.3,0.1-0.4v-0.2c0-0.2-0.1-0.3-0.3-0.3h-3.5v4.3h4c0,0,0,0,0.1,0c0,0,0.1,0,0.1,0
		c0,0,0,0,0.1-0.1c0,0,0-0.1,0-0.2V82.8L73.8,82.8z M91.2,84.5H90v-4l-2.2,3.8c-0.1,0.1-0.1,0.2-0.2,0.2c-0.1,0-0.2,0.1-0.3,0.1
		c-0.1,0-0.2,0-0.3-0.1c-0.1-0.1-0.2-0.1-0.2-0.2l-2.2-3.8v4h-1.2v-6.2c0-0.1,0-0.3,0.1-0.4c0.1-0.1,0.2-0.2,0.3-0.2
		c0.1,0,0.1,0,0.2,0c0.1,0,0.1,0,0.2,0c0.1,0,0.1,0.1,0.2,0.1c0.1,0,0.1,0.1,0.1,0.2l2.8,4.8L90,78c0.1-0.1,0.2-0.2,0.3-0.3
		c0.1-0.1,0.3-0.1,0.4,0c0.1,0,0.2,0.1,0.3,0.2c0.1,0.1,0.1,0.2,0.1,0.4V84.5L91.2,84.5z M103.2,82.5c0,0.2,0,0.5-0.1,0.6
		c-0.1,0.2-0.1,0.4-0.2,0.5c-0.1,0.1-0.2,0.3-0.4,0.4c-0.1,0.1-0.3,0.2-0.4,0.3c-0.1,0.1-0.3,0.1-0.4,0.1c-0.1,0-0.3,0-0.4,0h-4.7
		v-1.2h4.7c0.2,0,0.4-0.1,0.5-0.2c0.1-0.1,0.2-0.3,0.2-0.6c0-0.1,0-0.2-0.1-0.3c0-0.1-0.1-0.2-0.1-0.2c-0.1-0.1-0.1-0.1-0.2-0.2
		c-0.1,0-0.2-0.1-0.3-0.1h-2.8c-0.2,0-0.4,0-0.6-0.1c-0.2-0.1-0.4-0.2-0.6-0.3c-0.2-0.2-0.4-0.4-0.5-0.6c-0.1-0.3-0.2-0.6-0.2-0.9
		c0-0.4,0.1-0.7,0.2-0.9c0.1-0.3,0.3-0.5,0.5-0.6c0.2-0.2,0.4-0.3,0.6-0.3c0.2-0.1,0.4-0.1,0.6-0.1h4.2V79h-4.2
		c-0.2,0-0.4,0.1-0.5,0.2c-0.1,0.1-0.2,0.3-0.2,0.6c0,0.2,0.1,0.4,0.2,0.6c0.1,0.1,0.3,0.2,0.5,0.2h2.8h0c0.1,0,0.3,0,0.4,0.1
		c0.1,0,0.3,0.1,0.4,0.2c0.1,0.1,0.3,0.2,0.4,0.3c0.1,0.1,0.2,0.2,0.3,0.4c0.1,0.1,0.2,0.3,0.2,0.5
		C103.2,82.1,103.2,82.3,103.2,82.5L103.2,82.5z M111.7,81.8c0,0.4-0.1,0.8-0.2,1.1c-0.1,0.3-0.3,0.6-0.6,0.9
		c-0.3,0.3-0.5,0.4-0.9,0.6c-0.3,0.1-0.7,0.2-1.1,0.2h-1.7c-0.4,0-0.8-0.1-1.1-0.2c-0.3-0.1-0.6-0.3-0.9-0.6
		c-0.3-0.2-0.4-0.5-0.6-0.9c-0.1-0.3-0.2-0.7-0.2-1.1v-1.3c0-0.4,0.1-0.8,0.2-1.1c0.1-0.3,0.3-0.6,0.6-0.9c0.2-0.2,0.5-0.4,0.9-0.6
		c0.3-0.1,0.7-0.2,1.1-0.2h1.7c0.4,0,0.8,0.1,1.1,0.2c0.3,0.1,0.6,0.3,0.9,0.6c0.2,0.2,0.4,0.5,0.6,0.9c0.1,0.3,0.2,0.7,0.2,1.1
		V81.8L111.7,81.8z M110.5,80.5c0-0.2,0-0.5-0.1-0.7c-0.1-0.2-0.2-0.4-0.3-0.5c-0.1-0.1-0.3-0.2-0.5-0.3c-0.2-0.1-0.4-0.1-0.6-0.1
		h-1.7c-0.2,0-0.5,0-0.6,0.1c-0.2,0.1-0.4,0.2-0.5,0.3c-0.1,0.1-0.2,0.3-0.3,0.5c-0.1,0.2-0.1,0.4-0.1,0.7v1.3c0,0.2,0,0.5,0.1,0.7
		c0.1,0.2,0.2,0.4,0.3,0.5c0.1,0.1,0.3,0.2,0.5,0.3c0.2,0.1,0.4,0.1,0.6,0.1h1.6c0.2,0,0.5,0,0.7-0.1c0.2-0.1,0.4-0.2,0.5-0.3
		c0.1-0.1,0.2-0.3,0.3-0.5c0.1-0.2,0.1-0.4,0.1-0.7V80.5L110.5,80.5z M119.5,84.5h-5.6c-0.1,0-0.2,0-0.2,0c-0.1,0-0.1-0.1-0.2-0.1
		c-0.1-0.1-0.1-0.1-0.1-0.2c0-0.1,0-0.2,0-0.2v-6.1h1.2v5.5h5V84.5L119.5,84.5z M127,83.9c0,0.1,0,0.2,0,0.2c0,0.1-0.1,0.1-0.1,0.2
		c-0.1,0.1-0.1,0.1-0.2,0.1c-0.1,0-0.2,0-0.2,0h-2.7c-0.3,0-0.5,0-0.8-0.1c-0.3-0.1-0.5-0.1-0.8-0.3c-0.2-0.1-0.5-0.3-0.7-0.4
		c-0.2-0.2-0.4-0.4-0.6-0.6c-0.2-0.2-0.3-0.5-0.4-0.9c-0.1-0.3-0.1-0.7-0.1-1.1v-3.4h1.2v3.4c0,0.3,0,0.6,0.1,0.9
		c0.1,0.2,0.2,0.4,0.4,0.6c0.1,0.2,0.3,0.3,0.5,0.4c0.2,0.1,0.3,0.2,0.5,0.2c0.2,0,0.3,0.1,0.4,0.1c0.1,0,0.2,0,0.2,0h2.1v-5.5h1.2
		V83.9L127,83.9z M134.9,79h-2.7v5.5H131V79h-2.7v-1.2h6.6V79L134.9,79z M137.4,84.5h-1.2v-6.7h1.2V84.5L137.4,84.5z M146.3,81.8
		c0,0.4-0.1,0.8-0.2,1.1c-0.1,0.3-0.3,0.6-0.6,0.9c-0.3,0.3-0.5,0.4-0.9,0.6c-0.3,0.1-0.7,0.2-1.1,0.2h-1.7c-0.4,0-0.8-0.1-1.1-0.2
		c-0.3-0.1-0.6-0.3-0.9-0.6c-0.3-0.2-0.4-0.5-0.6-0.9c-0.1-0.3-0.2-0.7-0.2-1.1v-1.3c0-0.4,0.1-0.8,0.2-1.1c0.1-0.3,0.3-0.6,0.6-0.9
		c0.2-0.2,0.5-0.4,0.9-0.6c0.3-0.1,0.7-0.2,1.1-0.2h1.7c0.4,0,0.8,0.1,1.1,0.2c0.3,0.1,0.6,0.3,0.9,0.6c0.2,0.2,0.4,0.5,0.6,0.9
		c0.1,0.3,0.2,0.7,0.2,1.1V81.8L146.3,81.8z M145.1,80.5c0-0.2,0-0.5-0.1-0.7c-0.1-0.2-0.2-0.4-0.3-0.5c-0.1-0.1-0.3-0.2-0.5-0.3
		c-0.2-0.1-0.4-0.1-0.6-0.1h-1.7c-0.2,0-0.5,0-0.6,0.1c-0.2,0.1-0.4,0.2-0.5,0.3c-0.1,0.1-0.2,0.3-0.3,0.5c-0.1,0.2-0.1,0.4-0.1,0.7
		v1.3c0,0.2,0,0.5,0.1,0.7c0.1,0.2,0.2,0.4,0.3,0.5c0.1,0.1,0.3,0.2,0.5,0.3c0.2,0.1,0.4,0.1,0.6,0.1h1.6c0.2,0,0.5,0,0.7-0.1
		c0.2-0.1,0.4-0.2,0.5-0.3c0.1-0.1,0.2-0.3,0.3-0.5c0.1-0.2,0.1-0.4,0.1-0.7V80.5L145.1,80.5z M154.7,84c0,0.1,0,0.2,0,0.2
		c0,0.1-0.1,0.1-0.1,0.2c-0.1,0.1-0.1,0.1-0.2,0.1c-0.1,0-0.2,0-0.2,0c-0.1,0-0.2,0-0.2,0c-0.1,0-0.1-0.1-0.2-0.1l-4.5-4.7v4.7h-1.2
		v-6.2c0-0.1,0-0.2,0.1-0.3c0.1-0.1,0.2-0.2,0.3-0.2c0.1,0,0.2-0.1,0.4,0c0.1,0,0.2,0.1,0.3,0.2l4.5,4.7v-4.7h1.2V84L154.7,84z
		 M163,82.5c0,0.2,0,0.5-0.1,0.6c-0.1,0.2-0.1,0.4-0.2,0.5c-0.1,0.1-0.2,0.3-0.4,0.4c-0.1,0.1-0.3,0.2-0.4,0.3
		c-0.1,0.1-0.3,0.1-0.4,0.1c-0.1,0-0.3,0-0.4,0h-4.7v-1.2h4.7c0.2,0,0.4-0.1,0.5-0.2c0.1-0.1,0.2-0.3,0.2-0.6c0-0.1,0-0.2-0.1-0.3
		c0-0.1-0.1-0.2-0.1-0.2c-0.1-0.1-0.1-0.1-0.2-0.2c-0.1,0-0.2-0.1-0.3-0.1h-2.8c-0.2,0-0.4,0-0.6-0.1c-0.2-0.1-0.4-0.2-0.6-0.3
		c-0.2-0.2-0.4-0.4-0.5-0.6c-0.1-0.3-0.2-0.6-0.2-0.9c0-0.4,0.1-0.7,0.2-0.9c0.1-0.3,0.3-0.5,0.5-0.6c0.2-0.2,0.4-0.3,0.6-0.3
		c0.2-0.1,0.4-0.1,0.6-0.1h4.2V79h-4.2c-0.2,0-0.4,0.1-0.5,0.2c-0.1,0.1-0.2,0.3-0.2,0.6c0,0.2,0.1,0.4,0.2,0.6
		c0.1,0.1,0.3,0.2,0.5,0.2h2.8h0c0.1,0,0.3,0,0.4,0.1c0.1,0,0.3,0.1,0.4,0.2c0.1,0.1,0.3,0.2,0.4,0.3c0.1,0.1,0.2,0.2,0.3,0.4
		c0.1,0.1,0.2,0.3,0.2,0.5C162.9,82.1,163,82.3,163,82.5z"/>
	<path class="st2" d="M12.8,36.1l17-13.1l-3.3-2l-17,13.1c-0.2,0.1-0.4,0.3-0.4,0.6L12.8,36.1z"/>
	<path class="st3" d="M11.9,38c0.1-0.8,0.3-1.5,0.8-1.9L9,34.7c-0.2,0.3-0.2,0.7-0.2,1v40.5l3.2,1.8V38z"/>
	<linearGradient id="SVGID_1_" gradientUnits="userSpaceOnUse" x1="56.8063" y1="43.2273" x2="-14.3847" y2="60.9772">
		<stop  offset="0" style="stop-color:#F4E3C3"/>
		<stop  offset="1" style="stop-color:#755633"/>
	</linearGradient>
	<path class="st4" d="M12.8,36.1c-0.6,0.4-0.8,1.1-0.8,1.9c0,13.4,0,26.7,0,40.1c0.4,0.1,0.8,0.2,1.2,0.3c8.2-1.1,16.5-2.3,24.7-3.4
		c0.5-0.1,1-0.4,1.1-1c0-4.2,0-8.5,0-12.7c-3.1,0.5-6.1,1-9.2,1.5c0,1.2,0,2.3,0,3.5c-2.9,0.5-5.8,1-8.7,1.5c0-0.9,0-1.8,0-2.8
		c0-7.7,0-15.3,0-23c0-1.1-0.1-1.3,0.8-1.9c1.5-1,3-2.1,4.4-3.1c1.2-0.8,2.3-1.6,3.5-2.5c0-0.3,0-0.6,0-1c0-3.5,0-7.1,0-10.6
		C24.1,27.3,18.4,31.7,12.8,36.1z"/>
	<polygon class="st5" points="26.2,37 26.2,45.5 28.1,46.5 29.7,47.4 29.7,45.4 29.7,34.6 	"/>
	<linearGradient id="SVGID_2_" gradientUnits="userSpaceOnUse" x1="37.0757" y1="38.675" x2="29.4719" y2="40.5708">
		<stop  offset="0" style="stop-color:#F4E3C3"/>
		<stop  offset="1" style="stop-color:#755633"/>
	</linearGradient>
	<path class="st6" d="M29.7,34.6v10.8v2c2.5-2.2,5.2-4.1,8.9-4.3v-1.3v-2.7c0-0.7-0.3-1.2-0.8-1.4l-8.1-4V34.6z"/>
	<path class="st7" d="M29.7,47.4l-1.6-0.9c-1.1,0.9-1.9,1.9-3.1,3.2c-1.6,2.1-2.5,4.4-2.8,6.7c-0.1,1-0.2,2,0,2.9l3.1,1.7
		c-0.1-0.2-0.2-0.4-0.2-0.7c0.9-4.2,2.4-8.3,6-11.9c2.6-1.7,5.4-3.1,8.8-3.8c4.8-1.7,8.1-4.8,9.2-10.2c0.9-6.4-1.5-10.7-7.3-12.7
		c2.8,1.8,4.7,4.6,4.1,10.3c-0.7,4.2-2.9,7.5-6.6,9.7c-0.3,0.1-0.5,0.1-0.8,0.2v1.3C34.9,43.3,32.2,45.2,29.7,47.4z"/>
	<path class="st8" d="M31.1,48.4c-3.7,3.6-5.2,7.7-6,11.9c0,0.3,0.1,0.5,0.2,0.7c0.2,0.3,0.6,0.4,1.1,0.4c0.1,0,0.2,0,0.3,0
		c3.5-0.4,6.7-0.7,9.5-1.3c1.5-0.3,2.9-0.6,4.2-1.1C61.2,52.3,63,36.1,62.9,29c-0.6-9.6-4.9-16.5-13.1-20.4
		c-0.1-0.1-0.3-0.1-0.4-0.2c-2.3-1-4.7-1.5-7.2-1.3L29.7,8.8V23c4.1-0.5,11-2.4,14.6-0.3c4,2.3,5.6,6.2,4.9,11.6
		c-1.1,5.4-4.4,8.5-9.2,10.2C36.5,45.2,33.7,46.6,31.1,48.4z"/>
	<polygon class="st2" points="26.5,64.1 20.9,65 20.9,67.8 29.7,66.3 	"/>
	<path class="st3" d="M26.4,61.4l0,2.7l3.2,2.2v-3.5l9.2-1.5l-2.6-1.2c-2.8,0.5-6,0.9-9.5,1.3C26.6,61.4,26.5,61.4,26.4,61.4z"/>
	<path class="st9" d="M26.4,20.9l3.3,2V8.8l-3-1.8c-0.2,0.1-0.3,0.3-0.3,0.6V20.9z"/>
	<path class="st7" d="M49.8,8.6L49.8,8.6C49.8,8.6,49.8,8.6,49.8,8.6L49.8,8.6z M29.7,8.8l-3-1.8c3.2-0.8,7-1.3,11.1-1.5
		c5.5-0.3,9.3,1,12,3.1c-0.1-0.1-0.3-0.1-0.4-0.2c-2.3-1-4.7-1.5-7.2-1.3L29.7,8.8z"/>
</g>
</svg>
